<?xml version="1.0" encoding="UTF-8"?>
<svg id="Layer_2" data-name="Layer 2" xmlns="http://www.w3.org/2000/svg" viewBox="0 0 487 74.19">
  <defs>
    <style>
      .cls-1 {
        fill: #fff;
        stroke-width: 0px;
      }
    </style>
  </defs>
  <g id="Camada_1" data-name="Camada 1">
    <g>
      <path class="cls-1" d="M457.77,58.2c-.11-.11-.19-.28-.32-.32-11.26-3.72-16.1-9.7-15.69-19.4.43-10.41,8.03-19.92,18.19-21.89,3.95-.77,8.29-.83,12.23-.06,12.62,2.47,18.37,15.69,12.55,27.96-3.61,7.62-10.04,11.52-17.8,13.71h-9.15ZM480.12,34.85c-.11-8.38-6.32-14.78-14.23-14.67-9.24.13-17.56,9.43-17.34,19.4.18,8.15,6.25,14.17,14.21,14.08,9.21-.1,17.48-9.07,17.36-18.81Z"/>
      <g>
        <path class="cls-1" d="M75.82,31.92v10.51h-7.09c-1.8,3.93-3.45,7.42-4.96,10.97-.19.45.19,1.36.59,1.79,1.35,1.46,2.82,2.79,4.75,4.66-2.54,2.37-4.81,4.69-7.33,6.7-.57.45-2.27.18-2.96-.37-1.39-1.11-2.44-2.65-3.33-3.67-3.82,1.4-7.06,2.5-10.22,3.8-.6.25-1.17,1.25-1.24,1.95-.17,1.89-.06,3.8-.06,5.93h-12.11c0-1.81-.07-3.67.02-5.53.08-1.48-.33-2.16-1.92-2.62-3.02-.88-5.91-2.21-9.61-3.64-.83.99-1.82,2.61-3.22,3.67-.76.58-2.63.73-3.33.19-2.42-1.86-4.54-4.1-7.3-6.69,2.39-1.93,4.35-3.51,5.92-4.78-1.85-4.43-3.41-8.16-5.13-12.3H0v-10.53h17.29c-1.41,8.14.38,15.25,6.37,20.98,3.96,3.8,8.75,5.95,14.23,5.9,13.36-.12,21.31-10.45,20.8-26.92h17.13Z"/>
        <path class="cls-1" d="M37.89,55.86c-13.57-.03-22.8-12.2-18.28-24.92,3.84-10.8,10.03-20.48,16.62-29.85,1.05-1.5,2.38-1.42,3.43.06,6.51,9.21,12.53,18.76,16.43,29.34,4.78,13-4.38,25.39-18.19,25.36ZM38.34,3.99c-.78.83-1.07,1.04-1.24,1.33-4.51,8.06-9.26,16-13.35,24.27-1.4,2.83-1.67,6.5-1.56,9.75.19,5.69,4.98,11.51,9.56,12.51,1.83-11.94,9.41-18.67,20.98-22.29-4.85-8.62-9.5-16.89-14.39-25.58Z"/>
      </g>
      <path class="cls-1" d="M322.02,37.39c0,.91,0,1.83,0,2.74-.16,13.47-7.83,19.89-21.23,17.79-7.12-1.12-12.14-6.34-12.58-13.59-.29-4.71-.3-9.46,0-14.16.56-9.09,7.35-14.58,17.26-14.3,10.05.29,16.24,5.95,16.5,15.11.06,2.13,0,4.27,0,6.4.02,0,.04,0,.05,0ZM309.01,37.54h.02c0-2.42.45-4.96-.15-7.22-.42-1.59-2.28-2.81-3.49-4.19-1.36,1.2-3.75,2.3-3.88,3.62-.49,4.93-.51,9.95-.07,14.89.12,1.35,2.47,2.51,3.8,3.76,1.26-1.35,3.14-2.51,3.62-4.1.63-2.08.15-4.49.15-6.76Z"/>
      <path class="cls-1" d="M324.39,37.1c0-1.37.07-2.75-.01-4.11-.39-6.65,1.62-12.19,7.91-15.17,6.64-3.15,13.46-2.87,19.64,1.15,9.47,6.15,9.37,29.98.03,36.36-9.3,6.35-23.67,2.8-26.69-6.92-1.1-3.54-.83-7.51-1.18-11.28.1,0,.2-.02.3-.03ZM337.4,36.92s.02,0,.02,0c0,2.59-.41,5.27.16,7.73.33,1.43,2.18,3.4,3.45,3.48,1.24.08,3.64-1.84,3.75-3.04.45-5.11.49-10.31.1-15.43-.09-1.26-2.61-3.48-3.53-3.26-1.52.36-3.3,2.16-3.78,3.72-.65,2.08-.16,4.52-.16,6.8Z"/>
      <path class="cls-1" d="M252.07,37.06c0-1.22,0-2.44,0-3.66.12-14.6,13.84-22.26,26.6-14.85,4.58,2.66,7.03,6.69,7.23,11.95.16,4.41.22,8.85.02,13.26-.44,9.25-7.21,14.9-17.38,14.73-10.17-.17-16.14-5.62-16.43-15.04-.06-2.13,0-4.27,0-6.4h-.03ZM265.08,37.16s-.01,0-.02,0c0,2.44-.45,4.99.15,7.27.42,1.59,2.28,2.8,3.5,4.17,1.36-1.25,3.77-2.4,3.89-3.76.45-4.96.39-10.02-.05-14.99-.11-1.26-2.63-3.47-3.55-3.24-1.52.38-3.28,2.18-3.76,3.74-.64,2.09-.16,4.52-.16,6.8Z"/>
      <path class="cls-1" d="M132.03,58.7c-4.58,0-8.21.08-11.83-.06-.91-.03-2.43-.61-2.59-1.21-1.31-5.06-5.24-4.16-8.8-4.08-4.04.09-8.77-1.48-10.43,4.42-.14.49-1.5.88-2.31.9-3.64.1-7.28.04-11.31.04.34-1.18.44-2.07.83-2.81,6.56-12.71,13.18-25.4,19.73-38.12,1.39-2.7,3.69-3.14,4.96-.78,7.29,13.5,14.23,27.19,21.76,41.7ZM104.82,44.21h6.55c-1.16-2.3-2.11-4.2-3.31-6.58-1.2,2.44-2.11,4.29-3.24,6.58Z"/>
      <path class="cls-1" d="M244.62,16.5c-2.86,4.31-5.11,7.7-7.48,11.27.59.3.91.56,1.27.64,7.84,1.83,12.68,7.14,12.76,14.01.08,7.04-5.36,13.2-13.13,14.88-11.88,2.58-22.38-5-21.4-15.75.26-2.91,1.57-5.88,3.02-8.48,2.44-4.38,5.59-8.37,8.01-12.76,1.73-3.13,3.94-4.2,7.37-3.87,2.84.27,5.72.05,9.58.05ZM239.19,42.5c-2.55-2.05-4.17-3.34-5.78-4.64-1.28,1.68-3.45,3.31-3.54,5.05-.08,1.4,2.46,4.2,3.67,4.1,1.66-.12,3.16-2.38,5.66-4.52Z"/>
      <path class="cls-1" d="M191.7,32.61v9.64h-16.41v15.15h-13.39V16.79h31.39v9.78h-17.91c-.1,2.1-.18,3.71-.3,6.05h16.62Z"/>
      <path class="cls-1" d="M125.1,16.75h34.74v9.71h-10.51v30.98h-13.24v-30.49c-3.83-.18-7.23-.34-10.98-.52v-9.68Z"/>
      <path class="cls-1" d="M429.57,41.13c1.96,5.41,3.81,10.51,5.66,15.63-4.79,1.61-7.65.56-8.72-4.35-.55-2.5-2.02-4.8-2.6-7.3-.81-3.47-2.97-3.99-6.06-3.89-3.31.11-2.85,2.53-3.29,4.48-.5,2.23-1.01,4.45-1.47,6.69q-1.16,5.58-7.73,4.37c1.72-8.61,3.43-17.21,5.16-25.82.75-3.73,1.32-7.52,2.46-11.13.39-1.24,2.19-2.73,3.48-2.87,3.62-.38,7.31-.2,10.96-.09,6.32.18,10.23,2.79,11.69,7.65,1.51,5.05-.86,11.22-5.59,14.39-1.13.76-2.38,1.34-3.96,2.22ZM416.33,36.87c5.71.17,11.06,1.43,14.68-3.82,1.96-2.84,2.57-6.01.53-8.97-2.95-4.27-7.47-3.11-12.04-3.01-1.05,5.22-2.07,10.34-3.17,15.8Z"/>
      <path class="cls-1" d="M380.09,16.97c4.62,0,8.71-.07,12.81.02,7.55.17,11.97,3.68,12.59,9.88.66,6.52-4.18,13.17-10.88,14.27-4.01.66-8.14.54-12.53.79-1.1,5.08-2.19,10.08-3.33,15.32h-6.82c2.71-13.4,5.38-26.59,8.15-40.28ZM382.94,37.33c2.74,0,5.16.19,7.53-.04,4.88-.46,8.53-4.91,8.23-9.74-.24-3.78-3.04-6.08-7.38-6.55-3.82-.41-5.83.65-6.16,4.86-.29,3.71-1.39,7.36-2.21,11.46Z"/>
    </g>
  </g>
</svg>