<svg width="816" height="174" viewBox="0 0 816 174" fill="none" xmlns="http://www.w3.org/2000/svg">
<path d="M142.345 122L169.006 61.0087H189.221L215.883 122H194.623L174.931 70.7673H182.947L163.256 122H142.345ZM158.202 111.37L163.43 96.5579H191.486L196.714 111.37H158.202ZM229.345 122V76.9536H211.483V61.0087H267.769V76.9536H249.908V122H229.345ZM292.279 86.9736H319.115V102.483H292.279V86.9736ZM293.673 122H273.11V61.0087H322.688V76.5179H293.673V122Z" fill="white"/>
<path d="M397.865 121.798C393.046 121.798 388.508 120.837 384.251 118.916C379.994 116.994 376.564 114.2 373.962 110.534C371.361 106.868 370.06 102.448 370.06 97.2744C370.06 93.2832 371.08 89.3807 373.12 85.5669C374.48 83.0243 375.988 80.6443 377.643 78.427C379.328 76.1801 381.428 73.7262 383.941 71.0654C386.483 68.4046 389.661 65.1525 393.475 61.3091H417.555C414.156 64.709 411.362 67.6064 409.174 70.0011C406.986 72.3663 405.39 74.2288 404.384 75.5888C409.144 75.7958 413.091 76.9044 416.225 78.9148C419.388 80.8956 421.694 83.4678 423.143 86.6312C424.621 89.7946 425.36 93.2241 425.36 96.9197C425.36 101.118 424.252 105.124 422.034 108.938C419.788 112.751 416.565 115.856 412.367 118.25C408.198 120.616 403.364 121.798 397.865 121.798ZM397.777 106.366C400.97 106.366 402.566 103.158 402.566 96.7423C402.566 89.972 400.97 86.5868 397.777 86.5868C394.436 86.5868 392.766 89.9128 392.766 96.5649C392.766 103.099 394.436 106.366 397.777 106.366ZM459.064 122.197C450.402 122.197 443.646 119.389 438.798 113.771C433.949 108.125 431.525 100.275 431.525 90.2233C431.525 80.7035 433.934 73.2976 438.753 68.0055C443.572 62.7134 450.298 60.0674 458.931 60.0674C467.593 60.0674 474.334 62.7134 479.153 68.0055C483.972 73.2976 486.382 80.7035 486.382 90.2233C486.382 96.9049 485.303 102.626 483.144 107.386C480.986 112.175 477.852 115.841 473.743 118.384C469.633 120.926 464.741 122.197 459.064 122.197ZM464.696 91.465C464.696 87.799 464.534 84.8721 464.208 82.6843C463.854 80.5852 463.262 79.0922 462.434 78.2053C461.636 77.3183 460.513 76.8749 459.064 76.8749C457.527 76.8749 456.329 77.3183 455.472 78.2053C454.467 79.2105 453.802 80.8956 453.476 83.2608C453.181 85.5964 453.033 88.3016 453.033 91.3763C453.033 95.1014 453.225 97.9248 453.609 99.8465C453.964 101.886 454.556 103.35 455.383 104.237C456.241 105.124 457.394 105.567 458.842 105.567C460.38 105.567 461.562 105.124 462.39 104.237C463.307 103.232 463.913 101.591 464.208 99.3144C464.534 97.0379 464.696 94.4214 464.696 91.465ZM520.351 122.197C511.689 122.197 504.934 119.389 500.085 113.771C495.236 108.125 492.812 100.275 492.812 90.2233C492.812 80.7035 495.222 73.2976 500.041 68.0055C504.86 62.7134 511.586 60.0674 520.218 60.0674C528.881 60.0674 535.622 62.7134 540.441 68.0055C545.26 73.2976 547.669 80.7035 547.669 90.2233C547.669 96.9049 546.59 102.626 544.432 107.386C542.274 112.175 539.14 115.841 535.03 118.384C530.921 120.926 526.028 122.197 520.351 122.197ZM525.984 91.465C525.984 87.799 525.821 84.8721 525.496 82.6843C525.141 80.5852 524.55 79.0922 523.722 78.2053C522.924 77.3183 521.8 76.8749 520.351 76.8749C518.814 76.8749 517.617 77.3183 516.759 78.2053C515.754 79.2105 515.089 80.8956 514.764 83.2608C514.468 85.5964 514.32 88.3016 514.32 91.3763C514.32 95.1014 514.512 97.9248 514.897 99.8465C515.252 101.886 515.843 103.35 516.671 104.237C517.528 105.124 518.681 105.567 520.13 105.567C521.667 105.567 522.85 105.124 523.677 104.237C524.594 103.232 525.2 101.591 525.496 99.3144C525.821 97.0379 525.984 94.4214 525.984 91.465ZM581.639 122.197C572.976 122.197 566.221 119.389 561.372 113.771C556.524 108.125 554.099 100.275 554.099 90.2233C554.099 80.7035 556.509 73.2976 561.328 68.0055C566.147 62.7134 572.873 60.0674 581.506 60.0674C590.168 60.0674 596.909 62.7134 601.728 68.0055C606.547 73.2976 608.957 80.7035 608.957 90.2233C608.957 96.9049 607.877 102.626 605.719 107.386C603.561 112.175 600.427 115.841 596.318 118.384C592.208 120.926 587.315 122.197 581.639 122.197ZM587.271 91.465C587.271 87.799 587.108 84.8721 586.783 82.6843C586.428 80.5852 585.837 79.0922 585.009 78.2053C584.211 77.3183 583.088 76.8749 581.639 76.8749C580.101 76.8749 578.904 77.3183 578.047 78.2053C577.042 79.2105 576.376 80.8956 576.051 83.2608C575.755 85.5964 575.608 88.3016 575.608 91.3763C575.608 95.1014 575.8 97.9248 576.184 99.8465C576.539 101.886 577.13 103.35 577.958 104.237C578.815 105.124 579.968 105.567 581.417 105.567C582.954 105.567 584.137 105.124 584.965 104.237C585.881 103.232 586.487 101.591 586.783 99.3144C587.108 97.0379 587.271 94.4214 587.271 91.465Z" fill="white"/>
<path d="M621.531 122L633.729 61.0087H656.383C663.528 61.0087 669.046 62.577 672.938 65.7137C676.83 68.8504 678.775 73.236 678.775 78.8704C678.775 84.0402 677.614 88.4838 675.29 92.2014C673.025 95.8609 669.743 98.6781 665.445 100.653C661.146 102.57 656.063 103.528 650.197 103.528H630.157L634.775 99.3461L630.244 122H621.531ZM634.6 100.305L631.551 95.948H650.371C656.586 95.948 661.407 94.583 664.835 91.8529C668.32 89.0647 670.062 84.9986 670.062 79.6546C670.062 75.9951 668.814 73.236 666.316 71.3772C663.818 69.5184 660.246 68.589 655.599 68.589H637.214L641.832 64.1454L634.6 100.305ZM683.56 122L695.758 61.0087H718.499C725.644 61.0087 731.162 62.577 735.054 65.7137C739.004 68.8504 740.979 73.236 740.979 78.8704C740.979 83.9821 739.817 88.3677 737.494 92.0271C735.229 95.6866 731.947 98.5038 727.648 100.479C723.35 102.396 718.238 103.354 712.313 103.354H692.36L696.804 99.3461L692.36 122H683.56ZM724.599 122L712.052 99.8689H721.375L733.834 122H724.599ZM696.63 100.305L693.667 95.948H712.575C718.79 95.948 723.611 94.583 727.038 91.8529C730.523 89.0647 732.266 84.9986 732.266 79.6546C732.266 75.9951 731.017 73.236 728.519 71.3772C726.022 69.5184 722.42 68.589 717.715 68.589H699.418L703.862 64.1454L696.63 100.305ZM776.229 122.697C770.188 122.697 765.018 121.622 760.72 119.473C756.421 117.324 753.139 114.333 750.874 110.499C748.667 106.607 747.563 102.105 747.563 96.9936C747.563 91.94 748.434 87.2059 750.177 82.7913C751.919 78.3186 754.417 74.3977 757.67 71.0287C760.923 67.6597 764.815 65.0457 769.346 63.187C773.876 61.2701 778.959 60.3117 784.593 60.3117C790.692 60.3117 795.891 61.3863 800.19 63.5355C804.488 65.6847 807.741 68.7052 809.948 72.597C812.214 76.4308 813.346 80.9035 813.346 86.0151C813.346 91.0687 812.475 95.8318 810.732 100.305C808.99 104.719 806.492 108.611 803.239 111.98C799.986 115.349 796.066 117.992 791.477 119.909C786.946 121.768 781.863 122.697 776.229 122.697ZM777.013 114.942C781.195 114.942 785 114.216 788.427 112.764C791.854 111.254 794.759 109.192 797.14 106.578C799.522 103.906 801.351 100.856 802.629 97.4292C803.907 94.0021 804.546 90.3717 804.546 86.5379C804.546 82.8784 803.762 79.6837 802.194 76.9536C800.625 74.1654 798.302 71.9871 795.223 70.4188C792.145 68.8504 788.369 68.0663 783.896 68.0663C779.656 68.0663 775.822 68.8214 772.395 70.3316C769.026 71.7838 766.122 73.8459 763.682 76.5179C761.3 79.1318 759.471 82.1523 758.193 85.5795C756.915 89.0066 756.276 92.637 756.276 96.4708C756.276 100.13 757.06 103.354 758.628 106.142C760.255 108.872 762.578 111.022 765.599 112.59C768.678 114.158 772.482 114.942 777.013 114.942Z" fill="white"/>
<mask id="mask0_2_20" style="mask-type:alpha" maskUnits="userSpaceOnUse" x="12" y="12" width="126" height="128">
<path d="M68.75 126.274C59.8497 125.151 51.4147 121.61 44.3375 116.027L35.225 125.261L26.3875 116.305L35.5 107.071C29.9902 99.8998 26.4961 91.3523 25.3875 82.3333H12.5V69.6667H25.3875C26.4961 60.6477 29.9902 52.1002 35.5 44.9287L26.3875 35.6947L35.225 26.7393L44.3375 35.9733C51.4147 30.3901 59.8497 26.8494 68.75 25.726V12.6667H81.25V25.726C90.1503 26.8494 98.5853 30.3901 105.662 35.9733L114.775 26.7393L123.613 35.6947L114.5 44.9287C120.01 52.1002 123.504 60.6477 124.612 69.6667H137.5V82.3333H124.612C123.504 91.3523 120.01 99.8998 114.5 107.071L123.613 116.305L114.775 125.261L105.662 116.027C98.5853 121.61 90.1503 125.151 81.25 126.274V139.333H68.75V126.274ZM75 107.667C83.288 107.667 91.2366 104.33 97.0971 98.3917C102.958 92.4531 106.25 84.3985 106.25 76C106.25 67.6015 102.958 59.5469 97.0971 53.6083C91.2366 47.6696 83.288 44.3333 75 44.3333C66.712 44.3333 58.7634 47.6696 52.9029 53.6083C47.0424 59.5469 43.75 67.6015 43.75 76C43.75 84.3985 47.0424 92.4531 52.9029 98.3917C58.7634 104.33 66.712 107.667 75 107.667Z" fill="black"/>
</mask>
<g mask="url(#mask0_2_20)">
<rect y="70" width="142" height="80" fill="white"/>
</g>
<path d="M75.0054 10.5C55.0054 39.8333 27.0021 99.1 75.0021 101.5C123.002 99.1 95.0054 39.8333 75.0054 10.5Z" stroke="white" stroke-width="3"/>
<path d="M67.5054 100.5C63.9054 74.5 86.672 61.3333 98.5054 58L99.5054 62.5L101.005 69L101.505 75L101.005 80L100.505 84L99.5054 88L97.0054 92L93.5054 96L86.0054 99.5L78.0054 101.5L67.5054 100.5Z" fill="white"/>
</svg>
