<svg width="20" height="18" viewBox="0 0 20 18" fill="none" xmlns="http://www.w3.org/2000/svg">
<path fill-rule="evenodd" clip-rule="evenodd" d="M14.5833 2.00001C14.5833 1.35568 14.0983 0.833344 13.5 0.833344H1.33333C0.735006 0.833344 0.25 1.35568 0.25 2.00001C0.25 2.64434 0.735006 3.16668 1.33333 3.16668H13.5C14.0983 3.16668 14.5833 2.64434 14.5833 2.00001ZM17.5 9.00001C17.5 8.35566 17.015 7.83334 16.4167 7.83334H1.33333C0.735006 7.83334 0.25 8.35566 0.25 9.00001C0.25 9.64436 0.735006 10.1667 1.33333 10.1667H16.4167C17.015 10.1667 17.5 9.64436 17.5 9.00001ZM19.75 16C19.75 15.3557 19.265 14.8333 18.6667 14.8333H1.33333C0.735006 14.8333 0.25 15.3557 0.25 16C0.25 16.6444 0.735006 17.1667 1.33333 17.1667H18.6667C19.265 17.1667 19.75 16.6444 19.75 16Z" fill="#ffffff"/>
</svg>
