<svg width="32" height="31" viewBox="0 0 32 31" fill="none" xmlns="http://www.w3.org/2000/svg">
<path d="M16.3254 28.4166C23.459 28.4166 29.242 22.6336 29.242 15.4999C29.242 8.36624 23.459 2.58325 16.3254 2.58325C9.19168 2.58325 3.40869 8.36624 3.40869 15.4999C3.40869 22.6336 9.19168 28.4166 16.3254 28.4166Z" fill="white"/>
<path d="M16.3252 9.14642C18.3945 9.14642 18.6397 9.1543 19.4568 9.19156C20.2125 9.22605 20.6228 9.35231 20.896 9.45842C21.2577 9.59902 21.5158 9.76694 21.787 10.0381C22.0583 10.3094 22.2262 10.5675 22.3668 10.9292C22.4729 11.2024 22.5991 11.6127 22.6336 12.3683C22.6709 13.1855 22.6788 13.4306 22.6788 15.4999C22.6788 17.5693 22.6709 17.8144 22.6336 18.6316C22.5991 19.3873 22.4729 19.7976 22.3668 20.0707C22.2262 20.4324 22.0583 20.6906 21.7871 20.9618C21.5158 21.233 21.2577 21.4009 20.896 21.5415C20.6228 21.6477 20.2125 21.7739 19.4568 21.8084C18.6398 21.8456 18.3947 21.8536 16.3252 21.8536C14.2557 21.8536 14.0107 21.8456 13.1935 21.8084C12.4379 21.7739 12.0276 21.6477 11.7544 21.5415C11.3927 21.4009 11.1346 21.233 10.8634 20.9618C10.5922 20.6906 10.4242 20.4324 10.2836 20.0707C10.1775 19.7976 10.0512 19.3873 10.0168 18.6316C9.97949 17.8144 9.97162 17.5693 9.97162 15.4999C9.97162 13.4306 9.97949 13.1855 10.0168 12.3683C10.0512 11.6127 10.1775 11.2024 10.2836 10.9292C10.4242 10.5675 10.5921 10.3094 10.8634 10.0382C11.1346 9.76694 11.3927 9.59902 11.7544 9.45842C12.0276 9.35231 12.4379 9.22605 13.1935 9.19156C14.0107 9.1543 14.2559 9.14642 16.3252 9.14642ZM16.3252 7.75C14.2204 7.75 13.9565 7.75891 13.1299 7.79663C12.305 7.83428 11.7416 7.96526 11.2486 8.15688C10.739 8.35489 10.3068 8.61987 9.87597 9.05077C9.44507 9.48161 9.18008 9.9138 8.98207 10.4234C8.79045 10.9164 8.65948 11.4798 8.62182 12.3047C8.58411 13.1313 8.5752 13.3952 8.5752 15.4999C8.5752 17.6048 8.58411 17.8687 8.62182 18.6953C8.65948 19.5202 8.79045 20.0835 8.98207 20.5765C9.18008 21.0861 9.44507 21.5183 9.87597 21.9492C10.3068 22.3801 10.739 22.645 11.2486 22.8431C11.7416 23.0347 12.305 23.1657 13.1299 23.2033C13.9565 23.241 14.2204 23.2499 16.3252 23.2499C18.43 23.2499 18.6939 23.241 19.5205 23.2033C20.3454 23.1657 20.9088 23.0347 21.4018 22.8431C21.9114 22.645 22.3436 22.3801 22.7744 21.9492C23.2053 21.5183 23.4703 21.0861 23.6683 20.5765C23.8599 20.0835 23.9909 19.5202 24.0286 18.6953C24.0663 17.8687 24.0752 17.6048 24.0752 15.4999C24.0752 13.3952 24.0663 13.1313 24.0286 12.3047C23.9909 11.4798 23.8599 10.9164 23.6683 10.4234C23.4703 9.9138 23.2053 9.48161 22.7744 9.05077C22.3436 8.61987 21.9114 8.35489 21.4018 8.15688C20.9088 7.96526 20.3454 7.83428 19.5205 7.79663C18.6939 7.75891 18.43 7.75 16.3252 7.75Z" fill="#FFFFFF"/>
<path d="M16.3288 11.5237C14.1308 11.5237 12.3491 13.3054 12.3491 15.5034C12.3491 17.7013 14.1308 19.4831 16.3288 19.4831C18.5268 19.4831 20.3086 17.7013 20.3086 15.5034C20.3086 13.3054 18.5268 11.5237 16.3288 11.5237ZM16.3288 18.0867C14.9021 18.0867 13.7455 16.9301 13.7455 15.5034C13.7455 14.0767 14.9021 12.92 16.3288 12.92C17.7556 12.92 18.9121 14.0767 18.9121 15.5034C18.9121 16.9301 17.7556 18.0867 16.3288 18.0867Z" fill="#262830"/>
<path d="M21.3956 11.3644C21.3956 11.878 20.9793 12.2944 20.4656 12.2944C19.952 12.2944 19.5356 11.878 19.5356 11.3644C19.5356 10.8508 19.952 10.4343 20.4656 10.4343C20.9793 10.4343 21.3956 10.8508 21.3956 11.3644Z" fill="#FFFFFF"/>
</svg>
