<svg width="28" height="31" viewBox="0 0 28 31" fill="none" xmlns="http://www.w3.org/2000/svg">
<path d="M4.60754 17.9387C4.60754 16.6277 4.84591 15.3295 5.309 14.1183C5.77211 12.9071 6.4509 11.8066 7.30662 10.8795C8.16233 9.95254 9.1782 9.21718 10.2962 8.71548C11.4143 8.21379 12.6125 7.95557 13.8227 7.95557C15.0329 7.95557 16.2312 8.21379 17.3493 8.71549C18.4673 9.21718 19.4832 9.95254 20.3389 10.8796C21.1945 11.8066 21.8734 12.9071 22.3364 14.1183C22.7996 15.3295 23.0379 16.6277 23.0379 17.9387" stroke="#14151B" stroke-width="2" stroke-linejoin="round"/>
<path d="M11.519 19.1867C11.519 18.859 11.5786 18.5344 11.6944 18.2316C11.8102 17.9288 11.9799 17.6537 12.1938 17.4219C12.4077 17.1902 12.6617 17.0064 12.9412 16.8808C13.2207 16.7554 13.5204 16.6909 13.8228 16.6909C14.1253 16.6909 14.4249 16.7554 14.7045 16.8808C14.984 17.0064 15.2379 17.1902 15.4519 17.4219C15.6658 17.6537 15.8356 17.9288 15.9513 18.2316C16.0671 18.5344 16.1266 18.859 16.1266 19.1867" stroke="#14151B" stroke-width="2" stroke-linejoin="round"/>
<path d="M14.9747 16.6909L17.2785 12.9473" stroke="#14151B" stroke-width="2" stroke-linecap="round" stroke-linejoin="round"/>
<path d="M23.0379 17.9387V19.1866C23.0379 19.8758 22.5222 20.4345 21.886 20.4345H5.75944C5.12327 20.4345 4.60754 19.8758 4.60754 19.1866V17.9387" stroke="#14151B" stroke-width="2" stroke-linecap="round" stroke-linejoin="round"/>
</svg>
