<?xml version="1.0" encoding="UTF-8"?>
<svg id="Layer_2" data-name="Layer 2" xmlns="http://www.w3.org/2000/svg" viewBox="0 0 75.82 74.19">
  <defs>
    <style>
      .cls-1 {
        fill: #fff;
        stroke-width: 0px;
      }
    </style>
  </defs>
  <g id="Camada_1" data-name="Camada 1">
    <g>
      <path class="cls-1" d="M75.82,31.92v10.51h-7.09c-1.8,3.93-3.45,7.42-4.96,10.97-.19.45.19,1.36.59,1.79,1.35,1.46,2.82,2.79,4.75,4.66-2.54,2.37-4.81,4.69-7.33,6.7-.57.45-2.27.18-2.96-.37-1.39-1.11-2.44-2.65-3.33-3.67-3.82,1.4-7.06,2.5-10.22,3.8-.6.25-1.17,1.25-1.24,1.95-.17,1.89-.06,3.8-.06,5.93h-12.11c0-1.81-.07-3.67.02-5.53.08-1.48-.33-2.16-1.92-2.62-3.02-.88-5.91-2.21-9.61-3.64-.83.99-1.82,2.61-3.22,3.67-.76.58-2.63.73-3.33.19-2.42-1.86-4.54-4.1-7.3-6.69,2.39-1.93,4.35-3.51,5.92-4.78-1.85-4.43-3.41-8.16-5.13-12.3H0v-10.53h17.29c-1.41,8.14.38,15.25,6.37,20.98,3.96,3.8,8.75,5.95,14.23,5.9,13.36-.12,21.31-10.45,20.8-26.92h17.13Z"/>
      <path class="cls-1" d="M37.89,55.86c-13.57-.03-22.8-12.2-18.28-24.92,3.84-10.8,10.03-20.48,16.62-29.85,1.05-1.5,2.38-1.42,3.43.06,6.51,9.21,12.53,18.76,16.43,29.34,4.78,13-4.38,25.39-18.19,25.36ZM38.34,3.99c-.78.83-1.07,1.04-1.24,1.33-4.51,8.06-9.26,16-13.35,24.27-1.4,2.83-1.67,6.5-1.56,9.75.19,5.69,4.98,11.51,9.56,12.51,1.83-11.94,9.41-18.67,20.98-22.29-4.85-8.62-9.5-16.89-14.39-25.58Z"/>
    </g>
  </g>
</svg>