<?xml version="1.0" encoding="utf-8"?>
<!-- Generator: Adobe Illustrator 24.1.2, SVG Export Plug-In . SVG Version: 6.00 Build 0)  -->
<svg version="1.1" id="Layer_1" xmlns="http://www.w3.org/2000/svg" xmlns:xlink="http://www.w3.org/1999/xlink" x="0px" y="0px"
	 viewBox="0 0 125 34" style="enable-background:new 0 0 125 34;" xml:space="preserve">
<style type="text/css">
	.st0{fill:url(#SVGID_1_);}
	.st1{fill:url(#SVGID_2_);}
	.st2{fill:url(#SVGID_3_);}
	.st3{fill:url(#SVGID_4_);}
	.st4{fill:url(#SVGID_5_);}
	.st5{fill:#FFFFFF;}
</style>
<radialGradient id="SVGID_1_" cx="-443.1152" cy="520.1309" r="1" gradientTransform="matrix(14.0771 0 0 -13.7843 6238.3506 7190.0039)" gradientUnits="userSpaceOnUse">
	<stop  offset="0.1667" style="stop-color:#4775B6"/>
	<stop  offset="0.3142" style="stop-color:#4977B7"/>
	<stop  offset="0.4614" style="stop-color:#4D7FB9"/>
	<stop  offset="0.6085" style="stop-color:#568DBB"/>
	<stop  offset="0.7556" style="stop-color:#64A0BB"/>
	<stop  offset="0.9013" style="stop-color:#78B7B7"/>
	<stop  offset="1" style="stop-color:#89C9B2"/>
</radialGradient>
<path class="st0" d="M8.5,30.3c1,1,2.6,1,3.6,0c1-1,1-2.5,0-3.5l-7.7-7.5c-1-1-2.6-1-3.6,0c-1,1-1,2.5,0,3.5l4.5,4.4L8.5,30.3z"/>
<linearGradient id="SVGID_2_" gradientUnits="userSpaceOnUse" x1="2.7115" y1="16.9272" x2="20.5269" y2="16.9272" gradientTransform="matrix(1 0 0 -1 0 36)">
	<stop  offset="0" style="stop-color:#89C9B2"/>
	<stop  offset="9.870000e-02" style="stop-color:#78B7B7"/>
	<stop  offset="0.2444" style="stop-color:#64A0BB"/>
	<stop  offset="0.3915" style="stop-color:#568DBB"/>
	<stop  offset="0.5386" style="stop-color:#4D7FB9"/>
	<stop  offset="0.6858" style="stop-color:#4977B7"/>
	<stop  offset="0.8333" style="stop-color:#4775B6"/>
</linearGradient>
<path class="st1" d="M12.1,11.7c-1-1-2.6-1-3.6,0l-7.7,7.5c-1,1-1,2.4-0.1,3.4l0,0l0,0l0,0l0,0l4.5,4.4C2.9,24.8,6.2,21,6.2,21
	l5.9-5.8C13.1,14.3,13.1,12.7,12.1,11.7z"/>
<linearGradient id="SVGID_3_" gradientUnits="userSpaceOnUse" x1="124.8713" y1="17.7462" x2="112.1397" y2="17.7462" gradientTransform="matrix(1 0 0 -1 0 36)">
	<stop  offset="9.556050e-03" style="stop-color:#8C1456"/>
	<stop  offset="0.1343" style="stop-color:#8F1B56"/>
	<stop  offset="0.3029" style="stop-color:#962A56"/>
	<stop  offset="0.4966" style="stop-color:#A33E56"/>
	<stop  offset="0.7091" style="stop-color:#B75B51"/>
	<stop  offset="0.9344" style="stop-color:#D2813B"/>
	<stop  offset="1" style="stop-color:#DB8E2E"/>
</linearGradient>
<path class="st2" d="M116.5,12.8c-1-1-2.6-1-3.6,0c-1,1-1,2.5,0,3.5l7.7,7.5c1,1,2.6,1,3.6,0c1-1,1-2.5,0-3.5l-4.5-4.4L116.5,12.8z"
	/>
<linearGradient id="SVGID_4_" gradientUnits="userSpaceOnUse" x1="122.266" y1="12.0708" x2="104.451" y2="12.0708" gradientTransform="matrix(1 0 0 -1 0 36)">
	<stop  offset="0" style="stop-color:#DB8E2E"/>
	<stop  offset="6.560000e-02" style="stop-color:#D2813B"/>
	<stop  offset="0.2909" style="stop-color:#B75B51"/>
	<stop  offset="0.5034" style="stop-color:#A33E56"/>
	<stop  offset="0.6971" style="stop-color:#962A56"/>
	<stop  offset="0.8657" style="stop-color:#8F1B56"/>
	<stop  offset="0.9904" style="stop-color:#8C1456"/>
</linearGradient>
<path class="st3" d="M112.9,31.3c1,1,2.6,1,3.6,0l7.7-7.5c1-1,1-2.4,0.1-3.4l0,0l0,0l0,0l0,0l-4.5-4.4c2.4,2.4-0.8,6.2-0.8,6.2
	l-5.9,5.8C111.9,28.7,111.9,30.3,112.9,31.3z"/>
<linearGradient id="SVGID_5_" gradientUnits="userSpaceOnUse" x1="16.226" y1="15.1774" x2="22.2525" y2="14.2156" gradientTransform="matrix(1 0 0 -1 0 36)">
	<stop  offset="0" style="stop-color:#89C9B2"/>
	<stop  offset="9.870000e-02" style="stop-color:#78B7B7"/>
	<stop  offset="0.2444" style="stop-color:#64A0BB"/>
	<stop  offset="0.3915" style="stop-color:#568DBB"/>
	<stop  offset="0.5386" style="stop-color:#4D7FB9"/>
	<stop  offset="0.6858" style="stop-color:#4977B7"/>
	<stop  offset="0.8333" style="stop-color:#4775B6"/>
</linearGradient>
<path class="st4" d="M18.1,30c-0.3,0.9-1.2,1.3-2.1,1c-0.9-0.3-1.3-1.2-1.1-2l5.5-16.3c0.3-0.9,1.2-1.3,2.1-1c0.9,0.3,1.3,1.2,1.1,2
	L18.1,30z"/>
<path class="st5" d="M42.5,13.5c0.3,0,0.6,0.3,0.5,0.6L41,25.5c0,0.2-0.2,0.4-0.3,0.6c-0.2,0.2-0.4,0.3-0.6,0.3
	c-0.2,0-0.5,0-0.7-0.1c-0.2-0.1-0.4-0.2-0.5-0.4l-4.3-7l-4.3,7c-0.1,0.2-0.2,0.3-0.4,0.4c-0.2,0.1-0.4,0.1-0.6,0.1
	c-0.2,0-0.5-0.1-0.6-0.2C28.2,26,28,25.8,28,25.5l-2-11.2c-0.1-0.4,0.3-0.8,0.7-0.8h1.2c0.2,0,0.4,0.1,0.4,0.3l1.5,8.1l3.7-5.8
	c0.1-0.2,0.2-0.3,0.4-0.4c0.2-0.1,0.4-0.1,0.6-0.1c0.2,0,0.4,0,0.6,0.1c0.2,0.1,0.3,0.2,0.4,0.4l3.7,5.8l1.5-8
	c0-0.3,0.3-0.5,0.6-0.5L42.5,13.5z"/>
<path class="st5" d="M47.8,26.3H47c-0.5,0-0.8-0.4-0.8-0.8V14.3c0-0.4,0.4-0.8,0.8-0.8h0.7c0.5,0,0.8,0.4,0.8,0.8v11.2
	C48.6,25.9,48.2,26.3,47.8,26.3z M57.9,26.3h-1c-0.2,0-0.4-0.1-0.6-0.2l-4.8-4.8c-0.2-0.1-0.4-0.2-0.6-0.2h-0.5
	c-0.5,0-0.8-0.4-0.8-0.8v-0.7c0-0.4,0.4-0.8,0.8-0.8h0.5c0.2,0,0.4-0.1,0.6-0.2l4.8-4.8c0.2-0.1,0.4-0.2,0.6-0.2h1
	c0.7,0,1.1,0.9,0.6,1.4l-4.7,4.5c-0.3,0.3-0.3,0.8,0,1.1l4.7,4.5C59,25.4,58.6,26.3,57.9,26.3z"/>
<path class="st5" d="M75.7,21.1c0,0.8-0.1,1.5-0.4,2.2c-0.3,0.7-0.6,1.2-1.1,1.7s-1.1,0.9-1.7,1.1c-0.7,0.3-1.4,0.4-2.2,0.4H67
	c-0.8,0-1.5-0.1-2.2-0.4c-0.7-0.3-1.2-0.6-1.7-1.1c-0.5-0.5-0.9-1-1.1-1.7c-0.3-0.7-0.4-1.4-0.4-2.2v-2.4c0-0.8,0.1-1.5,0.4-2.1
	c0.3-0.7,0.7-1.2,1.1-1.7c0.5-0.5,1.1-0.8,1.7-1.1c0.7-0.3,1.4-0.4,2.2-0.4h3.2c0.8,0,1.5,0.1,2.2,0.4c0.7,0.3,1.2,0.6,1.7,1.1
	s0.9,1,1.1,1.7c0.3,0.7,0.4,1.4,0.4,2.1V21.1z M73.3,18.7c0-0.5-0.1-0.9-0.2-1.2c-0.2-0.4-0.4-0.7-0.6-1c-0.3-0.3-0.6-0.5-1-0.6
	c-0.4-0.1-0.8-0.2-1.3-0.2H67c-0.5,0-0.9,0.1-1.3,0.2c-0.4,0.1-0.7,0.4-1,0.6c-0.3,0.3-0.5,0.6-0.6,1s-0.2,0.8-0.2,1.2v2.4
	c0,0.5,0.1,0.9,0.2,1.2c0.2,0.4,0.4,0.7,0.6,1c0.3,0.3,0.6,0.5,1,0.6c0.4,0.1,0.8,0.2,1.3,0.2h3.2c0.5,0,0.9-0.1,1.3-0.2
	c0.4-0.1,0.7-0.4,1-0.6c0.3-0.3,0.5-0.6,0.6-1c0.2-0.4,0.2-0.8,0.2-1.2L73.3,18.7z"/>
<path class="st5" d="M92.1,20.9c0,0.8-0.1,1.5-0.4,2.2c-0.3,0.7-0.7,1.2-1.1,1.7c-0.5,0.5-1.1,0.8-1.7,1.1c-0.7,0.3-1.4,0.4-2.2,0.4
	h-6.4c-0.2,0-0.3,0-0.5-0.1c-0.1-0.1-0.3-0.1-0.4-0.2c-0.1-0.1-0.2-0.2-0.3-0.4C79,25.4,79,25.3,79,25.1V14.6c0-0.2,0-0.3,0.1-0.5
	s0.1-0.3,0.3-0.4c0.1-0.1,0.2-0.2,0.4-0.2c0.1-0.1,0.3-0.1,0.5-0.1h6.4c0.8,0,1.5,0.1,2.2,0.4c0.7,0.3,1.2,0.6,1.7,1.1
	c0.5,0.5,0.9,1,1.1,1.7c0.3,0.7,0.4,1.4,0.4,2.1V20.9z M89.7,18.8c0-0.5-0.1-0.9-0.2-1.2c-0.2-0.4-0.4-0.7-0.6-1
	c-0.3-0.3-0.6-0.5-1-0.6c-0.4-0.1-0.8-0.2-1.3-0.2h-5.2V24h5.2c0.5,0,0.9-0.1,1.3-0.2c0.4-0.1,0.7-0.4,1-0.6c0.3-0.3,0.5-0.6,0.6-1
	c0.2-0.4,0.2-0.8,0.2-1.2V18.8z"/>
<path class="st5" d="M107.2,25.7c0,0.3-0.2,0.5-0.6,0.5h-8c-0.3,0-0.7-0.1-1.1-0.2c-0.4-0.1-0.8-0.3-1.1-0.6c-0.3-0.3-0.6-0.6-0.8-1
	c-0.2-0.4-0.3-0.9-0.3-1.5v-8.4c0-0.2,0-0.3,0.1-0.5c0.1-0.1,0.1-0.3,0.3-0.4c0.1-0.1,0.2-0.2,0.4-0.2c0.1-0.1,0.3-0.1,0.5-0.1h10.1
	c0.3,0,0.6,0.2,0.6,0.5v1.2c0,0.3-0.2,0.5-0.6,0.5h-8.4c-0.3,0-0.6,0.2-0.6,0.5V23c0,0.3,0.1,0.5,0.2,0.7c0.2,0.2,0.4,0.2,0.7,0.2h8
	c0.3,0,0.6,0.2,0.6,0.5V25.7z M105.6,21h-6.4c-0.3,0-0.6-0.2-0.6-0.5v-1.2c0-0.3,0.2-0.5,0.6-0.5h6.4c0.3,0,0.6,0.2,0.6,0.5v1.2
	C106.1,20.8,105.9,21,105.6,21z"/>
<path class="st5" d="M27.4,32.9v-1l-0.5,0.8h-0.2l-0.5-0.8v1h-0.4v-1.7h0.3l0.6,1l0.6-1h0.3v1.7H27.4z"/>
<path class="st5" d="M31.5,32.6h-0.8l-0.2,0.4h-0.4l0.8-1.7h0.4l0.8,1.7h-0.4L31.5,32.6z M31.3,32.3l-0.3-0.6l-0.3,0.6H31.3z"/>
<path class="st5" d="M35.5,32.9l-0.3-0.5h0h-0.3v0.5h-0.4v-1.7h0.7c0.5,0,0.7,0.2,0.7,0.6c0,0.2-0.1,0.4-0.3,0.5l0.4,0.5L35.5,32.9z
	 M35.1,31.6h-0.3v0.6h0.3c0.2,0,0.4-0.1,0.4-0.3C35.5,31.7,35.4,31.6,35.1,31.6z"/>
<path class="st5" d="M39,32.3l-0.2,0.2v0.4h-0.4v-1.7h0.4V32l0.8-0.8H40L39.3,32l0.8,0.9h-0.5L39,32.3z"/>
<path class="st5" d="M43.7,32.6v0.3h-1.3v-1.7h1.3v0.3h-0.9v0.4h0.8v0.3h-0.8v0.4L43.7,32.6z"/>
<path class="st5" d="M46.5,31.6H46v-0.3h1.5v0.3h-0.5v1.4h-0.4L46.5,31.6L46.5,31.6z"/>
<path class="st5" d="M49.9,31.2h0.4v1.7h-0.4V31.2z"/>
<path class="st5" d="M54.4,31.2v1.7h-0.3l-0.9-1v1h-0.4v-1.7h0.3l0.9,1v-1H54.4z"/>
<path class="st5" d="M58.2,32.1h0.4v0.7c-0.2,0.1-0.5,0.2-0.7,0.2c-0.5,0-0.9-0.4-0.9-0.9c0-0.5,0.4-0.9,0.9-0.9
	c0.3,0,0.6,0.1,0.7,0.3l-0.3,0.2c-0.1-0.1-0.3-0.2-0.4-0.2c-0.3,0-0.6,0.2-0.6,0.5s0.2,0.5,0.6,0.5c0.1,0,0.2,0,0.3-0.1L58.2,32.1z"
	/>
<path class="st5" d="M65.3,32.6v0.3H64v-1.7h1.3v0.3h-0.9v0.4h0.8v0.3h-0.8v0.4L65.3,32.6z"/>
<path class="st5" d="M71,31.6h-0.5v-0.3H72v0.3h-0.5v1.4H71L71,31.6L71,31.6z"/>
<path class="st5" d="M75.7,32.6v0.3h-1.3v-1.7h1.3v0.3h-0.9v0.4h0.8v0.3h-0.8v0.4L75.7,32.6z"/>
<path class="st5" d="M78.1,32.1c0-0.5,0.4-0.9,0.9-0.9c0.3,0,0.5,0.1,0.7,0.3l-0.3,0.2c-0.1-0.1-0.3-0.2-0.4-0.2
	c-0.3,0-0.5,0.2-0.5,0.5c0,0.3,0.2,0.5,0.5,0.5c0.2,0,0.3-0.1,0.4-0.2l0.3,0.2c-0.2,0.2-0.4,0.3-0.7,0.3
	C78.5,33,78.1,32.6,78.1,32.1z"/>
<path class="st5" d="M83.7,31.2v1.7h-0.3l-0.9-1v1h-0.4v-1.7h0.3l0.9,1v-1H83.7z"/>
<path class="st5" d="M86.2,32.1c0-0.5,0.4-0.9,0.9-0.9s0.9,0.4,0.9,0.9c0,0.5-0.4,0.9-0.9,0.9S86.2,32.6,86.2,32.1z M87.7,32.1
	c0-0.3-0.2-0.5-0.5-0.5c-0.3,0-0.5,0.2-0.5,0.5c0,0.3,0.2,0.5,0.5,0.5C87.4,32.6,87.7,32.4,87.7,32.1z"/>
<path class="st5" d="M90.5,31.2h0.4v1.4h0.9v0.3h-1.3L90.5,31.2L90.5,31.2z"/>
<path class="st5" d="M94.1,32.1c0-0.5,0.4-0.9,0.9-0.9s0.9,0.4,0.9,0.9c0,0.5-0.4,0.9-0.9,0.9C94.5,33,94.1,32.6,94.1,32.1z
	 M95.5,32.1c0-0.3-0.2-0.5-0.5-0.5c-0.3,0-0.5,0.2-0.5,0.5c0,0.3,0.2,0.5,0.5,0.5C95.3,32.6,95.5,32.4,95.5,32.1z"/>
<path class="st5" d="M99.6,32.1h0.4v0.7c-0.2,0.1-0.5,0.2-0.7,0.2c-0.5,0-0.9-0.4-0.9-0.9c0-0.5,0.4-0.9,0.9-0.9
	c0.3,0,0.6,0.1,0.7,0.3l-0.3,0.2c-0.1-0.1-0.3-0.2-0.4-0.2c-0.3,0-0.6,0.2-0.6,0.5s0.2,0.5,0.6,0.5c0.1,0,0.2,0,0.3-0.1L99.6,32.1z"
	/>
<path class="st5" d="M102.5,31.2h0.4v1.7h-0.4V31.2z"/>
<path class="st5" d="M106.6,32.6h-0.8l-0.2,0.4h-0.4l0.8-1.7h0.4l0.8,1.7h-0.4L106.6,32.6z M106.5,32.3l-0.3-0.6l-0.3,0.6H106.5z"/>
<path class="st5" d="M8,7.1v-6h2.6c1,0,1.8,0.3,2.4,0.8c0.6,0.5,0.9,1.3,0.9,2.2S13.6,5.7,13,6.2c-0.6,0.5-1.4,0.8-2.4,0.8L8,7.1z
	 M8.9,6.3h1.6c0.7,0,1.3-0.2,1.8-0.6s0.7-1,0.7-1.6c0-0.7-0.2-1.2-0.7-1.6s-1-0.6-1.8-0.6H8.9V6.3z"/>
<path class="st5" d="M21.7,4.8c0,0.1,0,0.1,0,0.2h-3.7c0,0.4,0.2,0.7,0.5,1c0.3,0.2,0.7,0.4,1.1,0.4c0.5,0,1-0.2,1.3-0.5l0.5,0.5
	c-0.4,0.5-1,0.7-1.8,0.7c-0.7,0-1.3-0.2-1.8-0.6c-0.5-0.4-0.7-1-0.7-1.7c0-0.7,0.2-1.2,0.7-1.6c0.4-0.4,1-0.6,1.7-0.6
	c0.7,0,1.2,0.2,1.6,0.6C21.4,3.6,21.7,4.1,21.7,4.8z M20.4,3.6c-0.3-0.2-0.6-0.4-1-0.4c-0.4,0-0.7,0.1-1,0.4
	c-0.3,0.2-0.4,0.5-0.5,0.9h3C20.8,4.1,20.7,3.8,20.4,3.6z"/>
<path class="st5" d="M26.5,7.1c-0.4,0-0.7,0-1.1-0.1c-0.3-0.1-0.6-0.2-0.8-0.4L25,5.9c0.4,0.3,1,0.5,1.6,0.5c0.7,0,1.1-0.2,1.1-0.6
	c0-0.2-0.1-0.3-0.2-0.4c-0.1-0.1-0.3-0.1-0.5-0.2c-0.2,0-0.5-0.1-0.7-0.1C26,5.1,25.8,5,25.6,4.9c-0.2-0.1-0.4-0.2-0.5-0.4
	c-0.1-0.2-0.2-0.4-0.2-0.7c0-0.4,0.2-0.7,0.5-1c0.3-0.2,0.8-0.4,1.4-0.4c0.7,0,1.3,0.1,1.7,0.4L28,3.6c-0.4-0.2-0.8-0.4-1.3-0.4
	c-0.3,0-0.6,0.1-0.8,0.2c-0.2,0.1-0.3,0.3-0.3,0.5c0,0.2,0.1,0.3,0.3,0.4c0.2,0.1,0.4,0.2,0.7,0.2c0.3,0,0.6,0.1,0.9,0.2
	C27.8,4.7,28,4.8,28.2,5c0.2,0.2,0.3,0.4,0.3,0.8c0,0.4-0.2,0.7-0.5,1C27.6,7,27.2,7.1,26.5,7.1z"/>
<path class="st5" d="M36.1,4.8c0,0.1,0,0.1,0,0.2h-3.7c0,0.4,0.2,0.7,0.5,1s0.7,0.4,1.1,0.4c0.5,0,1-0.2,1.3-0.5l0.5,0.5
	c-0.4,0.5-1,0.7-1.8,0.7c-0.7,0-1.3-0.2-1.8-0.6c-0.5-0.4-0.7-1-0.7-1.7c0-0.7,0.2-1.2,0.7-1.6c0.4-0.4,1-0.6,1.7-0.6
	c0.7,0,1.2,0.2,1.6,0.6C35.9,3.6,36.1,4.1,36.1,4.8z M34.9,3.6c-0.3-0.2-0.6-0.4-1-0.4c-0.4,0-0.7,0.1-1,0.4
	c-0.3,0.2-0.4,0.5-0.5,0.9h2.9C35.3,4.1,35.2,3.8,34.9,3.6z"/>
<path class="st5" d="M42.2,2.5c0.6,0,1.1,0.2,1.4,0.5c0.3,0.3,0.5,0.8,0.5,1.5v2.6h-0.8V4.6c0-0.4-0.1-0.8-0.3-1
	c-0.2-0.2-0.5-0.3-0.9-0.3c-0.5,0-0.8,0.1-1.1,0.4c-0.3,0.3-0.4,0.6-0.4,1.1v2.3h-0.8V2.6h0.8v0.7C40.9,2.8,41.4,2.5,42.2,2.5z"/>
<path class="st5" d="M51.3,2.6h0.8l-2,4.5h-0.8l-2-4.5h0.9l1.6,3.6L51.3,2.6z"/>
<path class="st5" d="M57.3,7.1c-0.7,0-1.3-0.2-1.7-0.6c-0.5-0.4-0.7-1-0.7-1.7s0.2-1.2,0.7-1.6c0.5-0.4,1-0.6,1.7-0.6
	c0.7,0,1.3,0.2,1.7,0.6c0.5,0.4,0.7,1,0.7,1.6S59.4,6,59,6.5C58.6,6.9,58,7.1,57.3,7.1z M57.3,6.4c0.4,0,0.8-0.1,1.1-0.4
	c0.3-0.3,0.4-0.7,0.4-1.2c0-0.5-0.1-0.9-0.4-1.1c-0.3-0.3-0.7-0.4-1.1-0.4c-0.5,0-0.8,0.1-1.1,0.4c-0.3,0.3-0.4,0.7-0.4,1.1
	c0,0.5,0.2,0.9,0.4,1.2C56.5,6.3,56.8,6.4,57.3,6.4z"/>
<path class="st5" d="M63.2,7.1V0.8h0.8v6.3H63.2z"/>
<path class="st5" d="M71.3,2.6h0.8l-2,4.5h-0.8l-2-4.5h0.9l1.6,3.6L71.3,2.6z"/>
<path class="st5" d="M76.2,1.5c-0.1,0.1-0.2,0.2-0.4,0.2c-0.2,0-0.3,0-0.4-0.1c-0.1-0.1-0.2-0.2-0.2-0.4c0-0.1,0.1-0.3,0.2-0.4
	c0.1-0.1,0.2-0.2,0.4-0.2c0.2,0,0.3,0,0.4,0.1s0.2,0.2,0.2,0.4C76.3,1.3,76.3,1.4,76.2,1.5z M75.4,7.1V2.6h0.8v4.5H75.4z"/>
<path class="st5" d="M83.7,0.8h0.8v6.3h-0.8V6.3c-0.4,0.5-0.9,0.8-1.6,0.8c-0.7,0-1.2-0.2-1.7-0.6c-0.4-0.4-0.7-1-0.7-1.7
	c0-0.7,0.2-1.2,0.7-1.7c0.4-0.4,1-0.6,1.7-0.6c0.7,0,1.2,0.2,1.6,0.7V0.8z M82.2,6.4c0.4,0,0.8-0.1,1.1-0.4c0.3-0.3,0.4-0.7,0.4-1.2
	c0-0.5-0.2-0.9-0.4-1.1c-0.3-0.3-0.7-0.4-1.1-0.4c-0.5,0-0.8,0.1-1.1,0.4c-0.3,0.3-0.4,0.7-0.4,1.1s0.2,0.9,0.4,1.2
	C81.3,6.3,81.7,6.4,82.2,6.4z"/>
<path class="st5" d="M90.5,7.1c-0.7,0-1.3-0.2-1.7-0.6c-0.5-0.4-0.7-1-0.7-1.7s0.2-1.2,0.7-1.6c0.5-0.4,1-0.6,1.7-0.6
	c0.7,0,1.3,0.2,1.7,0.6c0.5,0.4,0.7,1,0.7,1.6S92.7,6,92.2,6.5C91.8,6.9,91.2,7.1,90.5,7.1z M90.5,6.4c0.4,0,0.8-0.1,1.1-0.4
	C91.9,5.7,92,5.3,92,4.8c0-0.5-0.1-0.9-0.4-1.1c-0.3-0.3-0.7-0.4-1.1-0.4s-0.8,0.1-1.1,0.4C89.1,3.9,89,4.3,89,4.8
	c0,0.5,0.2,0.9,0.4,1.2C89.7,6.3,90.1,6.4,90.5,6.4z"/>
<path class="st5" d="M101.3,2.5c0.7,0,1.2,0.2,1.7,0.6c0.4,0.4,0.7,1,0.7,1.7c0,0.7-0.2,1.2-0.7,1.7c-0.4,0.4-1,0.6-1.7,0.6
	c-0.7,0-1.2-0.2-1.6-0.7v2.3h-0.8V2.6h0.8v0.7C100,2.8,100.6,2.5,101.3,2.5z M101.2,6.4c0.5,0,0.8-0.1,1.1-0.4
	c0.3-0.3,0.4-0.7,0.4-1.2c0-0.5-0.2-0.8-0.4-1.1c-0.3-0.3-0.7-0.4-1.1-0.4c-0.4,0-0.8,0.1-1.1,0.4c-0.3,0.3-0.4,0.7-0.4,1.1
	c0,0.5,0.2,0.9,0.4,1.2C100.4,6.3,100.8,6.4,101.2,6.4z"/>
<path class="st5" d="M109.1,7.1c-0.7,0-1.3-0.2-1.7-0.6c-0.5-0.4-0.7-1-0.7-1.7s0.2-1.2,0.7-1.6c0.5-0.4,1-0.6,1.7-0.6
	c0.7,0,1.3,0.2,1.7,0.6c0.5,0.4,0.7,1,0.7,1.6s-0.2,1.2-0.7,1.7C110.4,6.9,109.8,7.1,109.1,7.1z M109.1,6.4c0.4,0,0.8-0.1,1.1-0.4
	c0.3-0.3,0.4-0.7,0.4-1.2c0-0.5-0.1-0.9-0.4-1.1c-0.3-0.3-0.7-0.4-1.1-0.4c-0.5,0-0.8,0.1-1.1,0.4c-0.3,0.3-0.4,0.7-0.4,1.1
	c0,0.5,0.2,0.9,0.4,1.2C108.3,6.3,108.7,6.4,109.1,6.4z"/>
<path class="st5" d="M115.9,3.3c0.3-0.5,0.9-0.8,1.7-0.8v0.8c0,0-0.1,0-0.2,0c-0.5,0-0.8,0.1-1.1,0.4C116.1,4,116,4.3,116,4.8v2.2
	h-0.8V2.6h0.8L115.9,3.3z"/>
</svg>
